<?xml version="1.0" standalone="no"?><!DOCTYPE svg PUBLIC "-//W3C//DTD SVG 1.1//EN" "http://www.w3.org/Graphics/SVG/1.1/DTD/svg11.dtd"><svg t="1605771767153" class="icon" viewBox="0 0 1024 1024" version="1.1" xmlns="http://www.w3.org/2000/svg" p-id="2294" xmlns:xlink="http://www.w3.org/1999/xlink" width="200" height="200"><defs><style type="text/css"></style></defs><path d="M788 333.4c-73.9 64.1-170.3 103-275.8 103s-202-38.8-275.8-103c-16.5-14.3-31.9-29.9-46-46.6v69.7c14.5 13.7 29.9 26.5 46 38.2 77.4 56.4 172.7 89.7 275.8 89.7S710.6 451 788 394.6c16.1-11.8 31.5-24.5 46-38.2v-69.7c-14.1 16.7-29.5 32.3-46 46.7z" p-id="2295"></path><path d="M110 927V169.1c0-13.3 10.7-24 24-24l32.3-0.1c13.3 0 24 10.7 24 24v758h46V816.1H788V927h46V169c0-13.3 10.7-24 24-24h32c13.3 0 24 10.7 24 24v758h46V145c0-26.5-21.5-48-48-48h-76c-26.5 0-48 21.5-48 48v623.1H683.4V432.3h-48v335.8h-99.3V446.8h-48v321.3h-99.3V432.3h-48v335.8H236.3V145c0-26.5-21.5-48-48-48l-76.3 0.1c-26.5 0-48 21.5-48 48V927h46z" p-id="2296"></path></svg>